<!-- Generator: Adobe Illustrator 18.1.1, SVG Export Plug-In  -->
<svg version="1.1"
	 xmlns="http://www.w3.org/2000/svg" xmlns:xlink="http://www.w3.org/1999/xlink" xmlns:a="http://ns.adobe.com/AdobeSVGViewerExtensions/3.0/"
	 x="0px" y="0px" width="1118.619px" height="426.151px" viewBox="0 0 1118.619 426.151"
	 enable-background="new 0 0 1118.619 426.151" xml:space="preserve">
<defs>
</defs>
<g id="VeryBackWave_copy">
	<path fill="#23BDDF" d="M401.789,239.521c-28.623-8.983-60.141-15.441-89.355-22.064c-26.666-6.045-47.689,13.525-73.46,16.044
		c-29.062,2.842-57.903-6.21-87.051-1.08c-28.719,5.055-54.902,19.325-83.56,24.785c-14.356,2.735-72.395,3.519-68.14,26.785
		c3.679,20.117,45.886,29.281,60.599,32.448c22.607,4.867,46.195,6.007,55.768,29.124c17.274,41.713,45.027,55.848,90.151,57.059
		c51.218,1.374,103.167-9.506,153.773-15.61c29.766-3.591,63.789-9.114,93.487-2.6c27.951,6.13,46.962,30.237,74.144,38.22
		c27.391,8.044,57.469,0.732,84.198-6.353c30.921-8.196,62.17-16.46,92.352-27.079c65.047-22.887,126.667-55.306,193.557-72.941
		c35.724-9.418,69.684-11.928,106.469-8.753c37.746,3.258,76.241,9.762,113.899,2.06c-58.561-12.529-114.386-36.175-173.051-47.882
		c-61.774-12.327-124.765,0.154-186.777,3.553c-61.122,3.351-122.533,1.581-183.682-0.178
		C516.094,263.36,458.302,257.256,401.789,239.521C372.587,230.356,402.618,239.781,401.789,239.521z"/>
</g>
<g id="WaveBackBody_copy">
	<path fill="#23BDDF" d="M632.46,101.544c-56.073-49.362-140.434-85.637-215.715-85.165
		c-35.665,0.224-122.912,12.217-122.447,61.583c14.846,1.247,30.387-0.173,45.182,1.252c-1.301,11.342-16.336,11.984-23.146,18.468
		c17.599,17.883,45.414,13.096,65.679,25.634c26.277,16.258,26.303,54.683,14.767,80.014c-12.808,28.124-39.947,48.752-68.39,59.347
		c-31.9,11.883-68.374,5.721-99.012,21.502c-29.368,15.127-47.873,54.362-10.316,72.603c26.597,12.918,60.321,4.545,88.332,2.635
		c13.239-0.903,101.206-5.695,69.872,23.72c1.008-0.947,34.901,7.373,40.456,7.373c33.581,0.003,68.249-4.41,101.581-8.287
		c49.388-5.745,100.696-13.307,145.674-35.691c37.467-18.646,100.938-72.427,68.717-120.164
		c-6.667-9.877-17.503-14.717-26.561-21.893c-11.958-9.474-20.829-21.501-28.762-34.403
		C664.008,146.721,653.481,120.05,632.46,101.544C599.576,72.596,662.276,127.794,632.46,101.544z"/>
	<path fill="#25ACCF" d="M614.33,139.823c9.536,3.783-32.198,81.398-37.728,90.095c-37.998,59.766-107.714,93.404-169.171,123.203
		c60.821,3.354,122.727-3.296,173.862-39.974c39.01-27.981,56.397-72.823,64.081-118.793c13.132,38.333,0.817,77.616-21.656,109.245
		c-14.389,20.251-41.208,60.843-69.169,62.625c65.699-4.187,129.933-56.245,139.114-122.964c0.081-0.588,6.02,6.741,6.578,7.846
		c3.403,6.734,2.11,17.37,1.236,24.729c-1.84,15.493-7.757,29.314-16.366,42.033c-6.187,9.141-29.55,45.216,0.652,36.377
		c17.17-5.025,27.787-30.592,41.513-40.869c5.947-4.453,11.109-7.998,18.227-4.184c9.999,5.358,5.245,19.465,12.149,25.341
		c17.253,14.684,41.748-23.989,52.104-33.356c9.297-8.41,21.46-14.574,34.326-10.487c10.187,3.236,11.503,12.97,19.968,17.042
		c13.601,6.543,32.31-7.105,43.658-13.422c16.735-9.316,32.296-14.972,51.521-16.13c36.995-2.229,74.569,7.992,109.676,18.501
		c-46.722-18.634-95.797-30.465-144.999-40.414c-50.403-10.192-102.212-11.093-151.924-24.721
		c-21.933-6.013-46.575-10.254-65.115-24.233c-14.893-11.229-23.755-27.612-36.377-40.792
		C656.657,152.076,632.822,147.045,614.33,139.823C623.509,143.464,614.373,139.839,614.33,139.823z"/>
	<path fill="#25ACCF" d="M239.941,279.617c30.4-9.734,63.47-6.444,93.509-17.549c27.169-10.044,50.962-32.798,62.758-59.256
		c9.779-21.935,12.567-54.004-5.544-72.811c-14.957-15.532-38.781-14.514-57.686-21.837c70.506,10.72,172.575-37.304,228.582,26.727
		c64.531,73.776-96.828,135.594-146.066,143.748c16.24-10.791,31.269-24.759,42.13-40.986c8.254-12.332,14.273-26.383,14.472-41.415
		c0.123-9.271-5.738-18.832-4.943-27.606c-1.299,14.344-7.648,27.386-14.652,39.857c-8.458,15.062-25.676,46.537-42.949,53.178
		c28.422-24.593,48.036-84.361,27.972-118.501c6.435,10.93-3.119,43.692-7.584,55.792c-6.586,17.847-16.893,34.43-29.845,48.342
		c-12.798,13.746-28.437,25.357-46.54,31.013c-4.778,1.493-52.005,5.611-50.687-0.192c-0.478,2.105,12.252,4.383,12.452,4.421
		c-28.072,0.875-45.117-0.163-81.304-0.875C235.985,280.931,237.965,280.249,239.941,279.617
		C277.366,267.634,237.965,280.249,239.941,279.617z"/>
</g>
<path fill="#96EDFF" d="M410.109,1.253c-10.861-1-21.455,1.962-31.964,1.543c-8.85-0.352-15.62-4.155-24.704-2.279
	c-3.903,0.806-6.633,4.092-10.541,4.933c-5.048,1.085-9.764-0.687-14.584-0.031c-10.534,1.434-12.979,4.365-20.625,11.134
	c9.162-6.99,21.085,3.13,8.469,10.563c-14.39,8.478-24.626-5.651-39.388,8.54c3.677-6.05,13.286,0.716,11.028,6.265
	c-2.846,6.996-22.787,3.36-28.742,11.197c3.293-2.514,12.814,0.667,12.235,5.522c-0.636,5.335-7.548,3.988-10.607,6.408
	c-5.431,4.297-17.591,17.358-5.327,24.013c1.281,0.695,19.179-19.491,24.078-4.92c2.821,8.393-20.784,13.32-9.964,26.78
	c5.824-12.066,19.163-9.736,11.311,4.631c-3.276,5.994-18.874,16.76-2.248,10.223c-2.868,10.222,3.274,21.186,15.218,21.15
	c-7.944-20.163,19.396,1.902,25.709-1.364c-6.928,0.529-5.54-13.865-0.94-15.026c3.064-0.773,4.368,6.544,6.655,6.986
	c5.278,1.021,9.996,1.312,16.109,1.8c-7.491-0.599-5.137-9.64-1.351-13.114c9.394-8.62,9.268,1.784,15.107,5.823
	c7.381,5.106,6.136,4.747,11.574,1.418c-0.029,0.018-1.886-5.391-0.741-6.458c2.152-2.005,9.754-1.761,12.108-3.03
	c-2.225-0.426-3.447-1.73-3.668-3.912c2.42-3.397,13.784,4.262,17.14-3.209c-7.226,0.022-13.502-11.618-5.435-15.281
	c3.942-1.79,5.188,4.834,9.735,5.449c-6.52-7.691,7.948-17.589,13.036-5.893c2.249,5.17-7.381,24.005,6.995,23.87
	c0.414-14.43,7.4-14.729,15.897-7.7c-4.364-8.206,11.392-22.311,16.164-12.35c3.383,7.062-7.16,24.553,11.419,24.666
	c-1.424-3.579,1.7-10.851,4.272-13.129c3.772-3.341,5.321,3.09,8.7,4.038c-0.833-8.698,10.655-15.907,18.266-11.118
	c7.358,4.629,3.122,12.306,2.191,19.701c2.481,0.936,56.299-20.949,36.422,0.657c12.033-1.634,27.272,3.518,12.98,13.709
	c-11.914,8.496-24.323-0.44-32.925,17.477c3.218-6.263,18.796,5.583-2.777,9.94c-10.129,2.046-27.601-0.549-29.209,13.929
	c0.596-5.361,15.882-5.729,16.615-0.248c1.167,8.735-18.253,4.264-11.216,18.534c1.458-0.753,2.917-1.507,4.375-2.26
	c0.077,4.259,1.549,7.961,4.418,11.106c0.038-6.339,13.136-1.816,14.895,0.888c-5.754-10.066,4.802-5.766,6.367-5.725
	c0.527-10.289,15.936-13.27,14.963-2.069c12.593-4.402-1.06-18.141,4.997-25.206c5.904-6.886,8.555,2.986,16.01,2.207
	c-5.74-7.615,1.904-21.134,11.765-19.207c3.667,0.716,4.365,7.217,5.108,7.349c6.926,1.234-2.746,1.606,4.767-2.185
	c5.163-2.605,5.806-14.502,14.914-6.378c2.539,2.265-5.936,15.921,3.564,15.68c-0.967-10.448,10.476-20.821,20.807-19.521
	c11.705,1.472,6.026,10.567,13.497,12.746c-4.194-5.597,12.51-3.955,14.699-2.569c11.996,7.594,2.6,14.352-4.779,21.732
	c-6.273,6.273-16.069,10.387-6.809,19.571c3.824,3.793,22.211,6.615,25.753,1.299c-7.006-3.372-8.94-11.153-5.498-17.582
	c3.432-6.41,5.587,2.845,8.675,2.585c-1.174-12.85,8.049,0.245,7.795,0.083c6.263,4,1.781,9.599,13.423,8.195
	c-6.761-4.388-3.714-13.693,3.227-15.418c5.748-1.428,12.681,5.848,16.474,8.925c13.424,10.891,23.497,21.467,40.102,28.418
	c19.409,8.125,39.887,10.397,60.398,13.98c20.387,3.562,42.001,11.211,62.898,7.436c-20.017,3.617-41.796-4.587-61.026-9.421
	c-18.985-4.772-38.037-9.511-56.18-16.996c-16.993-7.011-33.952-16.1-46.284-30.061c-14.661-16.597-20.28-39.368-30.684-58.568
	c-23.557-43.473-64.219-67.898-107.779-87.888C510.549,22.719,461.754,6.01,410.109,1.253
	C401.715,0.481,473.555,7.097,410.109,1.253z"/>
<path fill="#78E7FF" d="M406.886,110.319c4.235-25.136-17.033-10.273-11.13-3.311c-15.485-2.094-15.072-36.348-4.47-42.903
	c11.308-6.991,9.106,2.282,16.373,8.022c4.309,3.404,9.921,9.181,16.218,4.099c3.573-2.884-3.999-8.712,2.496-13.558
	c1.098,11.057,11.684,17.967,22.286,15.55c-2.557,0.584-5.944-13.728-3.548-17.214c1.417,4.033,6.511,9.063,11.14,7.568
	c7.645-2.469-0.838,2.438,1.195-6.864c1.833-8.385,0.131-22.178,14.512-18.511c-1.429,2.099-5.41,16.548,2.958,15.667
	c3.764-0.396,1.879-6.97,5.65-8.059c19.467-5.619,10.431,1.62,10.24,13.099c-0.122,7.328,5.446,25.183,16.194,22.579
	c6.156-1.492-0.488-14.398,10.733-12.586c11.448,1.848,0.768,13.745,6.015,19.163c5.342,5.517,9.804-5.759,20.367-3.171
	c26.995,6.615,31.211,43.07,3.017,51.193c10.686-10.577-13.778-11.908-18.012-11.333c19.951-21.687-34.106,0.217-36.422-0.657
	c0.922-7.322,5.248-15.019-2.191-19.701c-7.501-4.721-19.097,2.437-18.266,11.118c-2.623-0.736-5.703-7.695-8.7-4.038
	c-2.639,3.22-5.974,8.852-4.272,13.129c-18.429-0.113-8.15-17.824-11.419-24.666c-4.79-10.025-20.38,4.423-16.164,12.35
	c-8.188-6.773-15.46-7.538-15.897,7.7C409.665,125.043,406.053,115.261,406.886,110.319
	C407.838,104.668,406.053,115.261,406.886,110.319z"/>
<path fill="#78E7FF" d="M541.827,181.221c0.716-8.926,1.653-23.574,8.59-30.001c7.513-6.96,7.513-3.641,16.211-2.351
	c1.21,0.179-3.063,5.496,6.396,2.96c5.54-1.485,7.384-5.745,11.643-6.031c3.82-0.256,7.744,4.29,12.895,3.627
	c-2.955,0.38-6.75-24.432,10.622-18.545c1.903,0.645-0.099,9.378,5.432,9.777c5.98,0.431,5.892-1.466,9.12-2.353
	c4.277-1.175,4.872-6.189,11.725-5.171c5.443,0.808,12.239,8.54,14.862,12.819c7.59,12.381,4.463,24.741-6.426,33.667
	c8.569-17.43-22.464-12.575-19.864-9.105c-8.35-2.436-1.085-11.176-13.497-12.746c-10.268-1.299-21.771,9.112-20.807,19.521
	c-9.461,0.24-1.055-12.749-2.242-14.383c-8.431-11.608-11.33,2.452-16.236,5.081c-3.438,1.843,0.82,2.876-4.371,3.805
	c0.964-0.172-2.109-7.321-3.478-7.775c-9.491-3.145-21.133,8.273-13.791,18.013C546.744,182.227,543.303,182.984,541.827,181.221
	C542.202,176.548,542.121,181.572,541.827,181.221z"/>
<path fill="#78E7FF" d="M413.531,51.127c15.951-9.999,31.669-5.009,47.494,0.836c-5.106-8.313-55.683-29.331-54.208-11.282
	c-8.465-5.23-0.569-16.128-11.188-15.038c-8.107,0.832-11.898,12.84-5.365,18.021c-11.102,7.089-15.135-8.839-19.528-13.251
	c-4.583-4.603,1.855-3.105-5.306-5.543c-0.955-0.325-6.784,6.774-7.495,7.152c-4.26-5.485-0.418-11.717-6.105-15.407
	c-4.286-2.781-11.803-2.384-15.134,1.675c0.624-1.748,1.249-3.495,1.873-5.243c-11.514-0.725-6.861,20.046-19.051,20.225
	c7.364,6.371,16.59,3.828,25.171,5.968c8.975,2.238,12.779,7.171,20.128,11.942C382.244,62.493,395.438,62.47,413.531,51.127
	C424.142,44.475,402.562,58.004,413.531,51.127z"/>
</svg>